<?xml version="1.0" encoding="UTF-8" standalone="no"?>
<!-- Created with Inkscape (http://www.inkscape.org/) -->

<svg
   width="1260"
   height="380"
   viewBox="0 0 333.37499 100.54166"
   version="1.1"
   id="svg1"
   xmlns="http://www.w3.org/2000/svg"
   xmlns:svg="http://www.w3.org/2000/svg">
  <defs
     id="defs1" />
  <g
     id="layer1">
    <g
       id="g7"
       transform="matrix(0.52082135,0,0,0.52082135,-17.026944,-31.623272)"
       style="stroke-width:0.508012">
      <path
         d="m 108.61216,99.08736 q 16.88128,0 27.91904,8.76528 11.20008,8.76528 11.20008,25.64656 0,11.3624 -5.35656,19.31608 -5.19424,7.95368 -14.12184,11.84936 -8.76528,3.89568 -19.64072,3.89568 H 78.745274 v 39.7684 q 0,1.78552 -1.29856,3.08408 -1.29856,1.29856 -3.08408,1.29856 h -6.655121 q -1.78552,0 -3.08408,-1.29856 -1.29856,-1.29856 -1.29856,-3.08408 V 103.47 q 0,-1.78552 1.29856,-3.08408 1.29856,-1.29856 3.08408,-1.29856 z m -0.8116,54.86416 q 11.84936,0 18.17984,-5.03192 6.33048,-5.19424 6.33048,-15.4204 0,-19.80304 -24.51032,-19.80304 H 78.745274 v 40.25536 z m 120.02604,54.3772 q 0,1.78552 -1.29856,3.08408 -1.29856,1.29856 -3.08408,1.29856 h -6.00584 q -1.78552,0 -3.08408,-1.29856 -1.29856,-1.29856 -1.29856,-3.08408 v -42.85248 q 0,-12.174 -6.00584,-18.50448 -6.00584,-6.33048 -16.71896,-6.33048 -10.5508,0 -16.71896,6.33048 -6.00584,6.33048 -6.00584,18.50448 v 42.85248 q 0,1.78552 -1.29856,3.08408 -1.29856,1.29856 -3.08408,1.29856 h -6.00584 q -1.78552,0 -3.08408,-1.29856 -1.29856,-1.29856 -1.29856,-3.08408 V 101.8468 q 0,-1.78552 1.29856,-3.08408 1.29856,-1.29856 3.08408,-1.29856 h 6.00584 q 1.78552,0 3.08408,1.29856 1.29856,1.29856 1.29856,3.08408 v 35.87272 q 3.57104,-4.70728 9.7392,-7.79136 6.33048,-3.2464 15.4204,-3.2464 10.22616,0 18.17984,4.38264 7.95368,4.38264 12.33632,12.66096 4.54496,8.116 4.54496,19.31608 z m 27.34148,-97.22968 q 0,1.78552 -1.29856,3.08408 -1.29856,1.29856 -3.08408,1.29856 h -9.25224 q -1.78552,0 -3.08408,-1.29856 -1.29856,-1.29856 -1.29856,-3.08408 v -9.25224 q 0,-1.78552 1.29856,-3.08408 1.29856,-1.29856 3.08408,-1.29856 h 9.25224 q 1.78552,0 3.08408,1.29856 1.29856,1.29856 1.29856,3.08408 z m -1.6232,97.22968 q 0,1.78552 -1.29856,3.08408 -1.29856,1.29856 -3.08408,1.29856 h -6.00584 q -1.78552,0 -3.08408,-1.29856 -1.29856,-1.29856 -1.29856,-3.08408 V 132.6876 q 0,-1.78552 1.29856,-3.08408 1.29856,-1.29856 3.08408,-1.29856 h 6.00584 q 1.78552,0 3.08408,1.29856 1.29856,1.29856 1.29856,3.08408 z"
         id="text5"
         style="font-size:162.32px;font-family:Rubik;-inkscape-font-specification:Rubik;letter-spacing:-12.5893px;stroke-width:0.662285;stroke-linecap:round"
         aria-label="Phi" />
      <path
         d="m 641.9925,163.5284 q 0.16232,1.6232 0.16232,5.19424 0,3.73336 -0.16232,5.35656 -0.48696,11.68704 -5.51888,20.45232 -4.8696,8.76528 -13.14792,13.47257 -8.116,4.70728 -18.17984,4.70728 -16.88128,0 -25.1596,-11.03777 v 5.03193 q 0,1.78552 -1.29856,3.08408 -1.29856,1.29856 -3.08408,1.29856 h -6.00584 q -1.78552,0 -3.08408,-1.29856 -1.29856,-1.29856 -1.29856,-3.08408 V 100.2236 q 0,-1.78552 1.29856,-3.08408 1.29856,-1.29856 3.08408,-1.29856 h 6.00584 q 1.78552,0 3.08408,1.29856 1.29856,1.29856 1.29856,3.08408 v 35.87272 q 3.57104,-4.70728 9.7392,-7.79136 6.33048,-3.2464 15.4204,-3.2464 10.22616,0 18.34216,4.70728 8.116,4.70728 12.9856,13.47256 5.03192,8.60296 5.51888,20.29 z m -38.46984,35.22344 q 10.5508,0 16.71896,-6.65512 6.16816,-6.81744 6.97976,-18.6668 0.16232,-1.6232 0.16232,-4.54496 0,-13.7972 -6.33048,-21.75088 -6.16816,-8.116 -17.53056,-8.116 -10.22616,0 -16.39432,6.33048 -6.16816,6.33048 -7.14208,17.69288 -0.16232,1.6232 -0.16232,6.33048 0,4.8696 0.16232,6.4928 0.8116,10.5508 7.14208,16.71896 6.4928,6.16816 16.39432,6.16816 z"
         id="text5-2"
         style="font-size:162.32px;font-family:Rubik;-inkscape-font-specification:Rubik;letter-spacing:-12.5893px;stroke-width:0.662285;stroke-linecap:round"
         aria-label="b" />
      <path
         style="font-size:162.32px;font-family:Rubik;-inkscape-font-specification:Rubik;letter-spacing:0px;stroke-width:0.662285;stroke-linecap:round"
         d="m 469.29871,196.47936 q 1.78552,0 3.08408,1.29856 1.29856,1.29856 1.29856,3.08408 v 5.84353 q 0,1.78552 -1.29856,3.08408 -1.29856,1.29856 -3.08408,1.29856 h -66.06425 q -1.78552,0 -3.08408,-1.29856 -1.29856,-1.29856 -1.29856,-3.08408 V 101.8468 q 0,-1.78552 1.29856,-3.08408 1.29856,-1.29856 3.08408,-1.29856 h 6.65512 q 1.78552,0 3.08408,1.29856 1.29856,1.29856 1.29856,3.08408 v 94.63256 z m 69.7976,-38.79448 v -2.11016 q 0,-7.95368 -5.35656,-12.174 -5.19424,-4.38264 -13.63488,-4.38264 -6.4928,0 -10.22616,2.27248 -3.57104,2.11016 -6.81744,6.4928 -0.97392,1.29856 -2.11016,1.78552 -1.13624,0.48696 -3.08408,0.48696 h -4.8696 q -1.78552,0 -3.2464,-1.29856 -1.29856,-1.29856 -1.13624,-3.08408 0.48696,-4.8696 4.70728,-9.57688 4.38264,-4.8696 11.52472,-7.95368 7.14208,-3.08408 15.25808,-3.08408 15.09576,0 24.348,8.44064 9.41456,8.44064 9.41456,23.69872 v 49.50761 q 0,1.78552 -1.29856,3.08408 -1.29856,1.29856 -3.08408,1.29856 h -6.00584 q -1.78552,0 -3.08408,-1.29856 -1.29856,-1.29856 -1.29856,-3.08408 v -6.65513 q -2.59712,5.84353 -11.03776,9.25225 -8.44064,3.40872 -16.88128,3.40872 -8.27832,0 -14.77112,-2.92176 -6.4928,-3.08408 -10.06384,-8.27833 -3.40872,-5.19424 -3.40872,-11.68704 0,-12.174 9.08992,-18.99144 9.08992,-6.97976 24.18568,-9.41456 z m 0,12.9856 -19.15376,3.08408 q -10.5508,1.6232 -16.39432,5.35656 -5.84352,3.57104 -5.84352,9.08992 0,4.058 3.73336,7.3044 3.73336,3.2464 11.3624,3.2464 11.68704,0 18.99144,-6.65512 7.3044,-6.65512 7.3044,-17.36824 z"
         id="text5-3"
         aria-label="La" />
      <path
         id="text1-4"
         style="font-size:192px;font-family:arial;-inkscape-font-specification:arial;stroke-width:0.457442;stroke-linecap:round"
         d="m 308.14242,97.381523 c -1.87773,6.29e-4 -3.56277,1.230653 -4.47752,2.815787 -5.13311,7.57279 -10.29109,15.12959 -15.40918,22.7119 -5.00362,8.28671 -10.03222,16.55868 -15.0203,24.85462 -2.47262,4.37067 -4.28683,9.07761 -5.90173,13.82141 -1.23276,3.78116 -2.39566,7.60947 -2.99585,11.54923 -0.15003,0.98126 -0.19729,1.99104 -0.0587,2.96851 -0.83503,6.68568 0.02,13.71028 3.17825,19.72206 3.5329,6.73901 9.68938,11.92578 16.71437,14.74065 4.62743,1.87683 9.59748,2.80002 14.56946,3.08655 0,1.66251 0,3.32495 0,4.9874 4.35914,0 8.71826,0 13.07743,0 0,-1.66166 0,-3.32337 0,-4.98499 6.93229,-0.37183 13.90159,-2.09357 19.8548,-5.75252 4.67066,-2.85528 8.74954,-6.81417 11.29678,-11.69608 2.94551,-5.55703 3.88603,-11.98614 3.54017,-18.21318 -0.31273,-5.66837 -2.11906,-11.28394 -5.4116,-15.92981 -3.11338,-4.44797 -7.3694,-8.09255 -12.27677,-10.42491 -5.30213,-2.56475 -11.15969,-3.78045 -17.00338,-4.23998 0,-2.27595 0,-4.55193 0,-6.82782 -4.35917,0 -8.71829,0 -13.07743,0 0,2.2699 0,4.53988 0,6.80976 -3.79349,0.24835 -7.58039,0.80405 -11.23579,1.86565 4.49692,-7.30016 8.79703,-14.7212 13.39891,-21.95674 2.48247,-3.77167 5.07457,-7.47034 7.60273,-11.21158 2.97129,-4.37655 5.97747,-8.73088 8.92705,-13.12124 0.59646,-0.92952 0.80586,-2.11423 0.39134,-3.158929 -0.34295,-0.865453 -0.9863,-1.63926 -1.80405,-2.091811 -1.08153,-0.530779 -2.31873,-0.257147 -3.47522,-0.325135 -1.46786,8.82e-4 -2.93586,-0.0018 -4.40361,8.82e-4 z m 3.86444,61.609877 c 4.56338,0.15805 9.26564,1.15401 13.04387,3.8389 4.03352,2.88254 6.76091,7.41349 7.70624,12.25537 0.71558,3.63491 0.70032,7.41378 0.008,11.05088 -0.75105,3.92642 -2.67868,7.66856 -5.68302,10.34169 -3.29705,3.02589 -7.63317,4.69188 -12.01413,5.34447 -0.33949,0.0521 -0.88363,0.12736 -1.30403,0.17442 -0.64673,0.0724 -1.29541,0.12734 -1.9449,0.16746 0,-14.39263 0,-28.78532 0,-43.17801 0.0627,0.003 0.12554,0.004 0.18835,0.006 z m -13.26578,43.18637 c -4.86071,-0.23026 -9.74068,-1.67913 -13.66892,-4.61063 -0.21531,-0.15704 -0.60524,-0.45344 -0.87749,-0.6787 -1.84805,-1.48291 -3.38024,-3.35645 -4.45066,-5.47124 -0.0861,-0.17971 -0.30878,-0.62679 -0.43188,-0.91422 -1.80015,-4.1561 -2.06801,-8.81127 -1.64012,-13.27115 0.41969,-4.17319 1.85466,-8.37066 4.73006,-11.49963 2.79446,-3.08662 6.68257,-5.00199 10.70253,-5.92138 0.28575,-0.0676 0.7899,-0.17682 1.16134,-0.24592 1.42989,-0.27568 2.99984,-0.4542 4.37675,-0.53758 0.226,0.14368 0.0352,0.72471 0.0984,1.03958 0,14.03694 0,28.07392 0,42.11087 z" />
    </g>
  </g>
</svg>
