<?xml version="1.0" encoding="UTF-8"?>
<!-- Created with Inkscape (http://www.inkscape.org/) -->
<svg width="48" height="48" version="1.1" viewBox="0 0 48 48" xml:space="preserve" xmlns="http://www.w3.org/2000/svg"><path d="m5.7359 45.065c-0.24589-0.26174-0.25624-0.37035-0.25624-2.69 0-3.1699-0.22523-2.9297 2.7476-2.9297 2.2021 0 2.2021 0 2.2021-5.5389s0-5.5389-2.2186-5.5389c-2.9563 0-2.7311 0.24481-2.7311-2.9682 0-2.4227 0-2.4227 0.55978-2.9642 2.1323-2.0628 4.6607-4.4387 5.4933-5.1622 0.25043-0.21759 0.81014-0.74032 1.2438-1.1616 0.94851-0.92148 3.4251-3.231 4.0594-3.7855 0.25042-0.21894 0.81014-0.74279 1.2438-1.1641 0.94851-0.92148 3.4251-3.231 4.0594-3.7855 0.25043-0.21895 0.80984-0.74279 1.2431-1.1641 1.0696-1.04 3.5426-3.3383 3.7072-3.4453 0.07327-0.047623 3.4517-0.087386 7.5077-0.088381 8.9605-0.00222 7.8869-0.40521 7.8869 2.9606 0 2.816 0.49646 2.0747-4.5077 6.7303-0.44193 0.41114-0.44193 0.41114-0.44193 3.1372 0 2.7261 0 2.7261 2.2186 2.7261 2.9594 0 2.7311-0.25177 2.7311 3.0107 0 2.4652 0 2.4652-10.815 13.28-5.4073 5.4073-9.543 9.2954-11.761 10.748-0.21194-0.0419-2.7691 0.06699-6.4848 0.06699-7.4314 0-7.4314 0-7.6876-0.27276zm13.886-2.6735c0-1.2963 0-1.2963-2.2021-1.2963-3.1046 0-2.7476 0.93208-2.7476-7.1722 0-8.1513-0.3586-7.2053 2.7311-7.2053 2.2186 0 2.2186 0 2.2186-1.2963 0-1.2963 0-1.2963-6.246-1.2963-6.246 0-6.246 0-6.246 1.2963 0 1.2963 0 1.2963 2.2021 1.2963 3.1046 0 2.7476-0.93208 2.7476 7.1722 0 8.1513 0.35859 7.2053-2.7311 7.2053-2.2186 0-2.2186 0-2.2186 1.2963s0 1.2963 6.246 1.2963c6.246 0 6.246 0 6.246-1.2963zm21.213-20.387c0-0.88386 0-0.88386-9.7814 8.897-9.7814 9.7809-9.7814 9.7809-9.7814 10.665 0 0.88386 0 0.88386 9.7814-8.897 9.7814-9.7809 9.7814-9.7809 9.7814-10.665zm-11.019 7.6596c9.7809-9.7814 9.7809-9.7814 8.1813-9.7814-2.2304 0-2.098 0.18884-2.1391-3.05-0.03187-2.5096-0.03187-2.5096-0.86392-1.7038-0.99311 0.9618-3.2274 3.038-3.8658 3.5924-0.25043 0.21744-0.80866 0.74005-1.2405 1.1614-0.79741 0.77792-3.0879 2.9188-4.2405 3.9633-0.34822 0.31561-0.96194 0.89202-1.3638 1.2809-0.86931 0.84123-2.3029 2.1831-2.9904 2.7989-0.49331 0.44193-0.49331 0.44193-2.7321 0.44193s-2.2388 0-2.2388 5.5389 0 5.5389 1.8564 5.5389c1.8564 0 1.8564 0 11.637-9.7814zm-6.0044-6.4396c0.77454-0.72225 1.6132-1.4912 1.8636-1.7088 0.25043-0.21759 0.81014-0.74032 1.2438-1.1616 0.94851-0.92148 3.4251-3.231 4.0594-3.7855 0.25043-0.21894 0.81014-0.74279 1.2438-1.1641 0.94851-0.92148 3.4251-3.231 4.0594-3.7855 0.25043-0.21895 0.8098-0.74279 1.2431-1.1641 0.43326-0.42131 1.3553-1.2945 2.049-1.9404 1.2612-1.1744 1.2612-1.1744 1.2612-2.1428 0-0.96836 0-0.96836-0.68761-0.2987-0.37819 0.36831-1.2895 1.2265-2.0251 1.9071-0.73561 0.68058-1.5357 1.423-1.778 1.6499-0.24229 0.22686-1.0087 0.94279-1.7031 1.591-0.69443 0.64817-1.5143 1.4171-1.8219 1.7088-0.30762 0.29167-0.99453 0.92806-1.5265 1.4142-0.53195 0.48612-1.2968 1.2021-1.6997 1.591-0.70946 0.68484-2.6513 2.4905-3.9441 3.6675-0.34741 0.31629-0.98821 0.91979-1.424 1.3411-0.43579 0.42131-1.2785 1.2151-1.8726 1.7641-1.0803 0.99805-1.0803 0.99805-1.0803 1.9683s0 0.9703 0.5657 0.41613c0.31113-0.30479 1.1994-1.1451 1.974-1.8674zm-3.3449-1.0732c0.19366-0.17825 0.70894-0.66879 1.1451-1.0901 1.0617-1.0257 3.497-3.2959 4.0634-3.788 0.25043-0.21759 0.81014-0.74032 1.2438-1.1616 0.94851-0.92148 3.4251-3.231 4.0594-3.7855 0.25043-0.21894 0.81014-0.74279 1.2438-1.1641 0.96343-0.93597 3.4362-3.2411 4.0608-3.7855 0.25119-0.21895 0.75499-0.69213 1.1196-1.0515 0.36457-0.35939 0.99384-0.956 1.3984-1.3258 0.73553-0.67236 0.73553-0.67236-5.0505-0.67236-6.5927 0-5.792-0.16665-7.5761 1.5767-1.0325 1.009-3.604 3.4224-4.2372 3.9768-0.24993 0.21881-0.78607 0.71603-1.1914 1.1049-1.1975 1.1489-3.6215 3.4155-4.1118 3.8447-0.24994 0.21881-0.78313 0.71603-1.1849 1.1049-0.68853 0.66652-2.5905 2.4366-3.8996 3.6292-3.4225 3.1179-3.6199 2.9091 2.7506 2.9103 5.8146 0.0011 5.8146 0.0011 6.1667-0.32298z" stroke-width="1.4826"/></svg>
