<?xml version="1.0" encoding="UTF-8" standalone="no"?>
<!-- Created with Inkscape (http://www.inkscape.org/) -->

<svg
   width="48"
   height="48"
   viewBox="0 0 48 48"
   version="1.1"
   id="svg1"
   xml:space="preserve"
   inkscape:version="1.3.2 (091e20e, 2023-11-25, custom)"
   sodipodi:docname="load.svg"
   xmlns:inkscape="http://www.inkscape.org/namespaces/inkscape"
   xmlns:sodipodi="http://sodipodi.sourceforge.net/DTD/sodipodi-0.dtd"
   xmlns="http://www.w3.org/2000/svg"
   xmlns:svg="http://www.w3.org/2000/svg"><sodipodi:namedview
     id="namedview1"
     pagecolor="#ffffff"
     bordercolor="#000000"
     borderopacity="0.25"
     inkscape:showpageshadow="2"
     inkscape:pageopacity="0.0"
     inkscape:pagecheckerboard="0"
     inkscape:deskcolor="#d1d1d1"
     inkscape:document-units="px"
     inkscape:zoom="8"
     inkscape:cx="22.3125"
     inkscape:cy="11.8125"
     inkscape:window-width="1920"
     inkscape:window-height="1094"
     inkscape:window-x="-11"
     inkscape:window-y="-11"
     inkscape:window-maximized="1"
     inkscape:current-layer="layer1" /><defs
     id="defs1" /><g
     inkscape:label="Capa 1"
     inkscape:groupmode="layer"
     id="layer1"><path
       d="m 24,4.3379419 c -2.939533,0 -5.36238,2.4228464 -5.36238,5.3623795 0,0.6284046 0.132665,1.2218966 0.335149,1.7874596 H 10.035471 L 9.7561797,12.940092 4.3938003,39.75199 4.3379423,39.919564 v 3.742494 H 43.662058 v -3.742494 l -0.05586,-0.167574 -5.36238,-26.811898 -0.27929,-1.452311 h -8.9373 c 0.202486,-0.565563 0.335149,-1.159055 0.335149,-1.7874596 0,-2.9395331 -2.422846,-5.3623795 -5.362379,-5.3623795 z m 0,3.5749197 c 1.005446,0 1.78746,0.7820137 1.78746,1.7874598 0,1.0054466 -0.782014,1.7874596 -1.78746,1.7874596 -1.005446,0 -1.78746,-0.782013 -1.78746,-1.7874596 0,-1.0054461 0.782014,-1.7874598 1.78746,-1.7874598 z M 12.940093,15.062701 h 22.119814 l 5.027231,25.024437 H 7.9128619 Z"
       id="path1"
       style="stroke-width:1.78746" /></g></svg>
