<?xml version="1.0" encoding="UTF-8" standalone="no"?>
<!-- Created with Inkscape (http://www.inkscape.org/) -->

<svg
   width="48"
   height="48"
   viewBox="0 0 48 48"
   version="1.1"
   id="svg1"
   xml:space="preserve"
   inkscape:version="1.3.2 (091e20e, 2023-11-25, custom)"
   sodipodi:docname="momentum.svg"
   xmlns:inkscape="http://www.inkscape.org/namespaces/inkscape"
   xmlns:sodipodi="http://sodipodi.sourceforge.net/DTD/sodipodi-0.dtd"
   xmlns="http://www.w3.org/2000/svg"
   xmlns:svg="http://www.w3.org/2000/svg"><sodipodi:namedview
     id="namedview1"
     pagecolor="#ffffff"
     bordercolor="#000000"
     borderopacity="0.25"
     inkscape:showpageshadow="2"
     inkscape:pageopacity="0.0"
     inkscape:pagecheckerboard="0"
     inkscape:deskcolor="#d1d1d1"
     inkscape:document-units="px"
     inkscape:zoom="11.313708"
     inkscape:cx="36.371805"
     inkscape:cy="29.654291"
     inkscape:window-width="1920"
     inkscape:window-height="1094"
     inkscape:window-x="-11"
     inkscape:window-y="-11"
     inkscape:window-maximized="1"
     inkscape:current-layer="text4" /><defs
     id="defs1" /><g
     inkscape:label="Capa 1"
     inkscape:groupmode="layer"
     id="layer1"><path
       id="path3"
       style="fill:#000000;fill-opacity:1;stroke:none;stroke-width:2.758;stroke-linecap:square;stroke-linejoin:miter;stroke-dasharray:none;stroke-opacity:1"
       d="M 24.730469 4.3125 C 13.857374 4.3125 5.0429688 13.126905 5.0429688 24 C 5.0429688 34.873095 13.857374 43.6875 24.730469 43.6875 C 29.731995 43.6585 34.535002 41.726962 38.164062 38.285156 L 35.517578 35.441406 C 32.608395 38.216914 28.751132 39.779933 24.730469 39.8125 C 15.997474 39.8125 8.9179687 32.732994 8.9179688 24 C 8.9179688 15.267006 15.997474 8.1875 24.730469 8.1875 C 30.572452 8.1875476 35.938459 11.408653 38.685547 16.564453 L 42.957031 16.564453 C 39.935372 9.1563938 32.731079 4.3136452 24.730469 4.3125 z " /><g
       id="path4"
       transform="translate(0.79999586)"><path
         style="color:#000000;fill:#000000;stroke-linecap:round;stroke-linejoin:round;-inkscape-stroke:none"
         d="m 34.280944,16.5 h 10.53125 l -5.177697,8.375 z"
         id="path5" /><path
         style="color:#000000;fill:#000000;stroke-linecap:round;stroke-linejoin:round;-inkscape-stroke:none"
         d="m 34.28125,15.820313 a 0.67906792,0.67906792 0 0 0 -0.572266,1.044921 l 5.353516,8.375 a 0.67906792,0.67906792 0 0 0 1.150391,-0.0078 l 5.177734,-8.375 A 0.67906792,0.67906792 0 0 0 44.8125,15.820313 Z m 1.240234,1.359374 H 43.59375 L 39.625,23.599609 Z"
         id="path6" /></g><g
       id="text4"><path
         style="color:#000000;-inkscape-font-specification:Rubik;fill:#000000;stroke-linecap:round;stroke-linejoin:round;-inkscape-stroke:none"
         d="m 28.028184,17.658603 q 0.319064,-0.638128 0.877426,-0.638128 h 0.757777 q 0.219356,0 0.378888,0.159532 0.159532,0.159532 0.159532,0.378888 v 12.882209 q 0,0.219357 -0.159532,0.378889 -0.159532,0.159532 -0.378888,0.159532 h -0.817602 q -0.219356,0 -0.378888,-0.159532 -0.159532,-0.159532 -0.159532,-0.378889 v -9.452271 l -3.110874,6.002392 q -0.159532,0.319064 -0.358947,0.478596 -0.179474,0.159532 -0.458655,0.159532 h -0.757777 q -0.279181,0 -0.478596,-0.159532 -0.179473,-0.159532 -0.339005,-0.478596 l -3.110874,-6.002392 v 9.452271 q 0,0.219357 -0.159532,0.378889 -0.159532,0.159532 -0.378889,0.159532 h -0.817601 q -0.219357,0 -0.378889,-0.159532 -0.159532,-0.159532 -0.159532,-0.378889 V 17.558895 q 0,-0.219356 0.159532,-0.378888 0.159532,-0.159532 0.378889,-0.159532 h 0.757777 q 0.558362,0 0.877426,0.638128 l 4.028183,7.797126 z"
         id="path7" /><path
         style="color:#000000;-inkscape-font-specification:Rubik;fill:#000000;stroke-linecap:round;stroke-linejoin:round;-inkscape-stroke:none"
         d="m 18.335937,16.173828 c -0.351393,0 -0.733073,0.164714 -0.976562,0.408203 -0.243488,0.243488 -0.408203,0.625169 -0.408203,0.976563 v 12.882812 c 0,0.351394 0.164714,0.733074 0.408203,0.976563 0.243489,0.243489 0.625169,0.408203 0.976562,0.408203 h 0.81836 c 0.351393,0 0.733074,-0.164714 0.976562,-0.408203 0.243489,-0.243489 0.408204,-0.625169 0.408203,-0.976563 v -5.980469 l 1.507813,2.908204 c 0.137893,0.275786 0.297231,0.522668 0.533203,0.732421 a 0.84635465,0.84635465 0 0 0 0.0332,0.0293 c 0.283375,0.2267 0.660498,0.345703 1.007813,0.345703 h 0.757812 c 0.341403,0 0.722623,-0.126614 1.003906,-0.36914 0.249184,-0.206265 0.430502,-0.45866 0.570313,-0.738281 l 1.507812,-2.908204 v 5.980469 c 0,0.351394 0.164715,0.733074 0.408204,0.976563 0.243488,0.243488 0.625168,0.408203 0.976562,0.408203 h 0.818359 c 0.351394,0 0.733075,-0.164715 0.976563,-0.408203 0.243489,-0.243489 0.408203,-0.625169 0.408203,-0.976563 V 17.558594 c 0,-0.351394 -0.164715,-0.733075 -0.408203,-0.976563 -0.243488,-0.243488 -0.625169,-0.408203 -0.976563,-0.408203 H 28.90625 c -0.694629,0 -1.333748,0.503435 -1.634766,1.105469 L 24,23.611328 20.728516,17.279297 C 20.427498,16.677263 19.788379,16.173828 19.09375,16.173828 Z m 0.308594,1.693359 h 0.449219 c 0.04985,0 -0.0033,-0.07888 0.121094,0.169922 a 0.84635465,0.84635465 0 0 0 0.0059,0.0098 l 4.027344,7.796875 a 0.84635465,0.84635465 0 0 0 1.503906,0 l 4.027344,-7.796875 a 0.84635465,0.84635465 0 0 0 0.0059,-0.0098 c 0.124401,-0.248802 0.07124,-0.169922 0.121094,-0.169922 h 0.449219 v 12.265625 h -0.201172 v -9.144531 a 0.84635465,0.84635465 0 0 0 -1.597656,-0.388672 l -3.111329,6.001953 a 0.84635465,0.84635465 0 0 0 -0.0059,0.01172 c -0.05951,0.119021 -0.0981,0.154668 -0.113281,0.169922 h -0.65625 c -0.02323,-0.02804 -0.05277,-0.05671 -0.109375,-0.169922 a 0.84635465,0.84635465 0 0 0 -0.0059,-0.01172 l -3.111328,-6.001953 a 0.84635465,0.84635465 0 0 0 -1.597656,0.388672 v 9.144531 h -0.201172 z"
         id="path8" /></g></g></svg>
