<?xml version="1.0" encoding="UTF-8" standalone="no"?>
<!-- Created with Inkscape (http://www.inkscape.org/) -->

<svg
   width="48"
   height="48"
   viewBox="0 0 12.7 12.7"
   version="1.1"
   id="svg1"
   inkscape:version="1.3.2 (091e20e, 2023-11-25, custom)"
   sodipodi:docname="simuPhi6_logo.svg"
   xmlns:inkscape="http://www.inkscape.org/namespaces/inkscape"
   xmlns:sodipodi="http://sodipodi.sourceforge.net/DTD/sodipodi-0.dtd"
   xmlns="http://www.w3.org/2000/svg"
   xmlns:svg="http://www.w3.org/2000/svg">
  <sodipodi:namedview
     id="namedview1"
     pagecolor="#ffffff"
     bordercolor="#000000"
     borderopacity="0.25"
     inkscape:showpageshadow="2"
     inkscape:pageopacity="0.0"
     inkscape:pagecheckerboard="0"
     inkscape:deskcolor="#d1d1d1"
     inkscape:document-units="mm"
     inkscape:zoom="5.822615"
     inkscape:cx="-3.0055224"
     inkscape:cy="23.614819"
     inkscape:window-width="1920"
     inkscape:window-height="1094"
     inkscape:window-x="-11"
     inkscape:window-y="-11"
     inkscape:window-maximized="1"
     inkscape:current-layer="layer1" />
  <defs
     id="defs1" />
  <g
     inkscape:label="Capa 1"
     inkscape:groupmode="layer"
     id="layer1">
    <g
       id="g5"
       transform="matrix(0.05337448,0,0,0.05337448,-5.6582279,-9.5100974)"
       style="stroke-width:4.95711">
      <path
         style="font-size:192px;font-family:arial;-inkscape-font-specification:arial;stroke-width:7.64412;stroke-linecap:round"
         d="m 215.88695,265.74117 h 18.1875 v 11.54637 c 19.25,1.1875 33.96875,6.8125 44.15625,16.875 10.25,10.0625 15.375,22.5625 15.375,37.5 0,16.75 -5.53125,29.96875 -16.59375,39.65625 -11.0625,9.6875 -25.375,14.84375 -42.9375,15.46875 v 8.44008 h -18.1875 v -8.44008 c -18.0625,-0.6875 -32.5,-6 -43.3125,-15.9375 -10.8125,-10 -16.21875,-22.78125 -16.21875,-38.34375 0,-10.1875 2.34375,-19.40625 7.03125,-27.65625 2.34375,-4.125 5.17187,-7.8125 8.48437,-11.0625 3.3125,-3.25 7.10938,-6.0625 11.39063,-8.4375 8.5625,-4.75 19.4375,-7.4375 32.625,-8.0625 z m 0,27.29637 c -12.875,0.375 -22.875,3.90625 -30,10.59375 -7.0625,6.6875 -10.59375,16.28125 -10.59375,28.78125 0,12.625 3.875,22.21875 11.625,28.78125 7.75,6.5625 17.40625,9.9375 28.96875,10.125 z m 18.1875,78.28125 c 12.8125,-0.375 22.84375,-3.96875 30.09375,-10.78125 7.25,-6.8125 10.875,-16.28125 10.875,-28.40625 0,-11.5 -3.46875,-20.875 -10.40625,-28.125 -6.9375,-7.3125 -17.125,-10.96875 -30.5625,-10.96875 z"
         id="text1"
         aria-label="Φ"
         sodipodi:nodetypes="ccccsscccccssssccccsscccssccc" />
      <path
         style="font-size:192px;font-family:Rubik;-inkscape-font-specification:Rubik;stroke-width:7.64412;stroke-linecap:round"
         d="m 217.85465,236.5153 c -7.50342,10.94307 -27.97969,46.68847 -31.42151,50.50243 -3.44181,3.81396 -8.54091,4.21336 -9.73299,3.41529 -1.19209,-0.79806 -17.58818,36.2224 -19.58089,33.99365 -2.4122,-2.69793 6.42654,-33.41847 15.28058,-48.23541 l 25.39081,-41.97996 8.736,-12.864 17.472,-25.728 c 0.128,-0.256 0.448,-0.704 0.96,-1.344 0.64,-0.768 1.344,-1.344 2.112,-1.728 0.896,-0.512 1.856,-0.768 2.88,-0.768 h 10.944 c 1.152,0 2.048,0.448 2.688,1.344 0.768,0.768 1.152,1.728 1.152,2.88 0,0.64 -0.32,1.472 -0.96,2.496 z"
         id="text4"
         aria-label="6"
         sodipodi:nodetypes="csssccccccsscscc" />
      <rect
         style="fill:#000000;stroke-width:7.64412;stroke-linecap:round"
         id="rect5-0"
         width="33.069984"
         height="8.3873148"
         x="208.44571"
         y="394.12854" />
      <rect
         style="fill:#000000;stroke-width:7.64412;stroke-linecap:round"
         id="rect5-0-6"
         width="33.069984"
         height="8.3873148"
         x="208.44571"
         y="261.67676" />
    </g>
  </g>
</svg>
